# xmcd
#
# Track frame offsets:
#	150
#	29117
#	66805
#	97745
#	131272
#	155967
#	199940
#	235370
#	284652
#	317695
#
# Disc length: 4678 seconds
#
# Revision: 0
# Processed by: cddbd v1.5.2PL0 Copyright (c) Steve Scherf et al.
# Submitted via: EZCDAudioConverter 2.1.7.1
#
DISCID=9412440a
DTITLE=Wayne Shorter - Footprints 1/2
DYEAR=1900
DGENRE=
TTITLE0=Art Blakey and The Jazz Messengers - Lester Left Town
TTITLE1=Wayne Shorter - Speak No Evil
TTITLE2=Wayne Shorter - Infant Eyes
TTITLE3=Gil Evans Orchestra - Time Of The Barracudas
TTITLE4=Miles Davis - E.S.P.
TTITLE5=Miles Davis - Footprints
TTITLE6=Miles Davis - Nefertiti
TTITLE7=Miles Davis - Sanctuary
TTITLE8=Weather Report - Mysterious Traveller
TTITLE9=Weather Report - Lusitanos
EXTD=
EXTT0=
EXTT1=
EXTT2=
EXTT3=
EXTT4=
EXTT5=
EXTT6=
EXTT7=
EXTT8=
EXTT9=
PLAYORDER=
